<?xml version="1.0" encoding="utf-8"?>
<!-- Generator: Adobe Illustrator 16.0.0, SVG Export Plug-In . SVG Version: 6.00 Build 0)  -->
<!DOCTYPE svg PUBLIC "-//W3C//DTD SVG 1.1//EN" "http://www.w3.org/Graphics/SVG/1.1/DTD/svg11.dtd">
<svg version="1.1" id="图层_1" xmlns="http://www.w3.org/2000/svg" xmlns:xlink="http://www.w3.org/1999/xlink" x="0px" y="0px"
	 width="50px" height="50px" viewBox="0 0 50 50" enable-background="new 0 0 50 50" xml:space="preserve">
<g opacity="0.14">
	<g>
		<path fill="#FFFFFF" d="M24.699,1.747c12.803,0,23.188,10.38,23.188,23.186c0,2.317-0.346,4.554-0.975,6.665
			c-1.276,4.252-3.734,7.992-6.998,10.832c-4.022,3.336-9.588,5.689-15.216,5.689c-0.045,0-0.083,0-0.127,0
			C11.82,48.05,1.502,37.698,1.504,24.934C1.504,12.127,11.887,1.747,24.699,1.747C24.699,1.747,24.698,1.747,24.699,1.747
			 M24.699,1.14c-13.125,0-23.803,10.674-23.803,23.794C0.895,37.982,11.514,48.656,24.568,48.727h0.063l0.067,0
			c5.45,0,11.138-2.125,15.604-5.83c3.416-2.972,5.898-6.816,7.192-11.125c0.664-2.228,1-4.529,1-6.84
			C48.494,11.813,37.819,1.14,24.699,1.14L24.699,1.14z"/>
	</g>
</g>
<g>
	<path fill="#FFFFFF" d="M24.693,25.898c0.104,0,0.202-0.008,0.3-0.015c0.027-0.002,0.056-0.002,0.085-0.004
		c2.775-0.197,4.962-2.506,4.962-5.33c0-2.955-2.39-5.351-5.347-5.351c-0.218,0-0.434,0.019-0.647,0.044c-0.004,0-0.007,0-0.012,0
		c-2.644,0.327-4.688,2.574-4.688,5.306C19.346,23.502,21.737,25.898,24.693,25.898z"/>
	<path fill="#FFFFFF" d="M28.338,27.208h-0.856c-0.321,0.965-1.107,1.702-2.081,1.95c-0.037,0.009-0.077,0.007-0.113,0.015
		c-0.193,0.043-0.389,0.082-0.594,0.082c-1.292,0-2.389-0.856-2.785-2.047h-0.854c-3.065,0-5.557,2.353-5.557,5.419v2.041h10.278
		h0.166h7.948v-2.041C33.89,29.562,31.405,27.208,28.338,27.208z"/>
</g>
<g>
	<path fill="#C6C9CF" d="M33.89,34.668v-2.041c0-3.066-2.484-5.419-5.552-5.419h-0.856c-0.321,0.965-1.107,1.702-2.081,1.95
		c-0.037,0.009-0.077,0.007-0.113,0.015l0.488,5.495h0.166H33.89z"/>
	<path fill="#C6C9CF" d="M30.04,20.548c0-2.955-2.39-5.351-5.347-5.351c-0.218,0-0.434,0.019-0.647,0.044l0.947,10.641
		c0.027-0.002,0.056-0.002,0.085-0.004C27.854,25.682,30.04,23.373,30.04,20.548z"/>
</g>
</svg>
