<?xml version="1.0" encoding="utf-8"?>
<!-- Generator: Adobe Illustrator 16.0.0, SVG Export Plug-In . SVG Version: 6.00 Build 0)  -->
<!DOCTYPE svg PUBLIC "-//W3C//DTD SVG 1.1//EN" "http://www.w3.org/Graphics/SVG/1.1/DTD/svg11.dtd">
<svg version="1.1" id="图层_1" xmlns="http://www.w3.org/2000/svg" xmlns:xlink="http://www.w3.org/1999/xlink" x="0px" y="0px"
	 width="60.166px" height="20.5px" viewBox="0 0 60.166 20.5" enable-background="new 0 0 60.166 20.5" xml:space="preserve">
<g>
	<g>
		<ellipse fill="#FFFFFF" cx="51.5" cy="8.082" rx="5.174" ry="2.95"/>
		<path fill="#FFFFFF" d="M51.46,12.118c-2.17,0-4.215-0.768-5.149-1.889c-0.034,0.194-0.007,0.461,0.012,0.637
			c0.157,1.573,2.317,2.95,5.173,2.95c2.858,0,4.895-1.345,5.176-2.95c0.048-0.274,0.105-0.489,0.004-0.72
			C55.764,11.312,53.683,12.118,51.46,12.118z"/>
	</g>
</g>
<path fill="#FFFFFF" d="M51.46,14.917c-2.17,0-4.215-0.768-5.149-1.889c-0.034,0.194-0.007,0.461,0.012,0.637
	c0.157,1.573,2.317,2.95,5.173,2.95c2.858,0,4.895-1.345,5.176-2.95c0.048-0.274,0.105-0.489,0.004-0.72
	C55.764,14.111,53.683,14.917,51.46,14.917z"/>
<g>
	<path fill="#FF2200" d="M39.73,10.179c0,4.534-3.676,8.209-8.207,8.209H11.383c-1.928,0-3.514-0.518-4.913-1.632
		c-0.039-0.032-5.757-0.225-5.757-0.225s2.797-4.02,2.771-4.111c-0.201-0.712-0.309-1.463-0.309-2.242l0,0
		c0-4.533,3.674-8.208,8.207-8.208h20.141C36.055,1.97,39.73,5.646,39.73,10.179L39.73,10.179z"/>
</g>
</svg>
