<?xml version="1.0" encoding="utf-8"?>
<!-- Generator: Adobe Illustrator 16.0.0, SVG Export Plug-In . SVG Version: 6.00 Build 0)  -->
<!DOCTYPE svg PUBLIC "-//W3C//DTD SVG 1.1//EN" "http://www.w3.org/Graphics/SVG/1.1/DTD/svg11.dtd">
<svg version="1.1" id="图层_1" xmlns="http://www.w3.org/2000/svg" xmlns:xlink="http://www.w3.org/1999/xlink" x="0px" y="0px"
	 width="76.709px" height="46.5px" viewBox="0 0 76.709 46.5" enable-background="new 0 0 76.709 46.5" xml:space="preserve">
<g id="bg2" display="none">
	<defs>
		<rect id="SVGID_16_" x="-2.352" y="374.816" width="1550.465" height="174.393"/>
	</defs>
	<clipPath id="SVGID_2_" display="inline">
		<use xlink:href="#SVGID_16_"  overflow="visible"/>
	</clipPath>
	<g display="inline" clip-path="url(#SVGID_2_)">
		
			<image overflow="visible" width="2400" height="1600" xlink:href="../../../设计素材/栏目/背景/desktop.jpg"  transform="matrix(0.6792 0 0 0.6792 -26.1406 -93.1641)">
		</image>
	</g>
</g>
<g id="bg1" display="none">
	<defs>
		<rect id="SVGID_18_" x="-2.352" y="374.816" width="1550.465" height="174.393"/>
	</defs>
	<clipPath id="SVGID_4_" display="inline">
		<use xlink:href="#SVGID_18_"  overflow="visible"/>
	</clipPath>
	<g transform="matrix(1 0 0 1 -4.768372e-007 0)" display="inline" clip-path="url(#SVGID_4_)">
		
			<image overflow="visible" width="5616" height="3744" xlink:href="../../../设计素材/栏目/背景/work-stations-plus-espresso.jpg"  transform="matrix(0.3093 0 0 0.3093 -6.8701 -144.2002)">
		</image>
	</g>
</g>
<g>
	<g>
		<linearGradient id="SVGID_5_" gradientUnits="userSpaceOnUse" x1="28.5371" y1="29.3682" x2="67.2155" y2="9.4339">
			<stop  offset="0" style="stop-color:#E50012"/>
			<stop  offset="1" style="stop-color:#F6AE00"/>
		</linearGradient>
		<path fill="url(#SVGID_5_)" d="M43.034,18.898h-6.032c-1.455,0-2.812,1.218-3.007,2.619l-0.62,4.523
			c-0.205,1.481,0.797,2.644,2.281,2.644h6.027c1.482,0,2.805-1.163,3.012-2.644l0.621-4.523
			C45.51,20.116,44.488,18.898,43.034,18.898z M42.805,21.517l-0.623,4.523c-0.099,0.714-0.789,1.323-1.504,1.323h-3.652
			c-0.712,0-1.236-0.609-1.139-1.323l0.62-4.523c0.1-0.714,0.788-1.295,1.505-1.295h3.648
			C42.377,20.222,42.902,20.803,42.805,21.517z"/>
		<linearGradient id="SVGID_7_" gradientUnits="userSpaceOnUse" x1="27.127" y1="26.6357" x2="65.7996" y2="6.7044">
			<stop  offset="0" style="stop-color:#E50012"/>
			<stop  offset="1" style="stop-color:#F6AE00"/>
		</linearGradient>
		<polygon fill="url(#SVGID_7_)" points="27.345,33.526 29.856,33.526 32.125,17.044 29.613,17.056 		"/>
		<linearGradient id="SVGID_9_" gradientUnits="userSpaceOnUse" x1="24.9512" y1="21.1289" x2="63.6272" y2="1.1959">
			<stop  offset="0" style="stop-color:#E50012"/>
			<stop  offset="1" style="stop-color:#F6AE00"/>
		</linearGradient>
		<path fill="url(#SVGID_9_)" d="M30.274,12.208c0,0,23.001-12.249,34.058-6.511c3.416,1.771,4.703,3.797,5.029,5.708h1.229
			c0.094-2.646-1.07-5.583-5.228-8.012C50.137-5.525,27.557,8.24,27.557,8.24l-0.926-1.775l-4.545,7.652l9.273-0.048L30.274,12.208z
			"/>
		<linearGradient id="SVGID_11_" gradientUnits="userSpaceOnUse" x1="28.0869" y1="28.4902" x2="66.7616" y2="8.5579">
			<stop  offset="0" style="stop-color:#E50012"/>
			<stop  offset="1" style="stop-color:#F6AE00"/>
		</linearGradient>
		<path fill="url(#SVGID_11_)" d="M48.382,12.894H36.248c-0.402,0.18-0.785,0.354-1.133,0.516l-0.031,0.229l0.334,0.577h11.594
			c0.977,0,1.661,0.794,1.527,1.774l-1.798,13.058l2.515-0.013l1.795-13.045C51.287,14.27,50.105,12.894,48.382,12.894z"/>
		<linearGradient id="SVGID_13_" gradientUnits="userSpaceOnUse" x1="27.9277" y1="28.0894" x2="66.5623" y2="8.1777">
			<stop  offset="0" style="stop-color:#E50012"/>
			<stop  offset="1" style="stop-color:#F6AE00"/>
		</linearGradient>
		<polygon fill="url(#SVGID_13_)" points="54.676,14.216 57.404,14.216 57.584,12.894 54.853,12.894 		"/>
		<linearGradient id="SVGID_15_" gradientUnits="userSpaceOnUse" x1="33.7246" y1="39.4102" x2="72.3985" y2="19.4782">
			<stop  offset="0" style="stop-color:#E50012"/>
			<stop  offset="1" style="stop-color:#F6AE00"/>
		</linearGradient>
		<path fill="url(#SVGID_15_)" d="M69.362,26.04l0.624-4.523c0.191-1.401-0.83-2.619-2.281-2.619h-6.033
			c-1.455,0-2.813,1.218-3.003,2.619l-0.624,4.523c-0.205,1.481,0.797,2.644,2.278,2.644h6.031
			C67.838,28.684,69.16,27.521,69.362,26.04z M67.471,21.517l-0.619,4.523c-0.098,0.714-0.791,1.323-1.506,1.323h-3.649
			c-0.714,0-1.239-0.609-1.142-1.323l0.623-4.523c0.098-0.714,0.789-1.295,1.502-1.295h3.652
			C67.044,20.222,67.572,20.803,67.471,21.517z"/>
		<linearGradient id="SVGID_17_" gradientUnits="userSpaceOnUse" x1="33.7813" y1="39.5313" x2="72.4586" y2="19.5975">
			<stop  offset="0" style="stop-color:#E50012"/>
			<stop  offset="1" style="stop-color:#F6AE00"/>
		</linearGradient>
		<path fill="url(#SVGID_17_)" d="M73.053,12.894H59.855l-0.184,1.322h12.009c0.978,0,1.661,0.794,1.526,1.774L71.219,30.43
			c-0.136,0.98-1.043,1.8-2.02,1.8h-1.957l-0.184,1.321h3.146c1.721,0,3.291-1.428,3.525-3.122l1.99-14.439
			C75.955,14.27,74.771,12.894,73.053,12.894z"/>
		<linearGradient id="SVGID_19_" gradientUnits="userSpaceOnUse" x1="31.2148" y1="34.54" x2="69.8855" y2="14.6098">
			<stop  offset="0" style="stop-color:#E50012"/>
			<stop  offset="1" style="stop-color:#F6AE00"/>
		</linearGradient>
		<polygon fill="url(#SVGID_19_)" points="52.635,29.02 55.146,29.007 56.971,15.758 54.461,15.758 		"/>
	</g>
	<g>
		<linearGradient id="SVGID_21_" gradientUnits="userSpaceOnUse" x1="38.0781" y1="33.4629" x2="4.1576" y2="46.5551">
			<stop  offset="0" style="stop-color:#1C1F7A"/>
			<stop  offset="1" style="stop-color:#0075C1"/>
		</linearGradient>
		<path fill="url(#SVGID_21_)" d="M45.398,32.029l1.086,1.861c0,0-23.004,12.248-34.061,6.51c-3.252-1.688-4.575-3.606-4.973-5.44
			H6.162c-0.009,2.576,1.214,5.398,5.232,7.745c15.226,8.917,37.809-4.848,37.809-4.848l0.924,1.776l4.549-7.652L45.398,32.029z"/>
		<linearGradient id="SVGID_23_" gradientUnits="userSpaceOnUse" x1="33.1172" y1="20.6074" x2="-0.8052" y2="33.7003">
			<stop  offset="0" style="stop-color:#1C1F7A"/>
			<stop  offset="1" style="stop-color:#0075C1"/>
		</linearGradient>
		<polygon fill="url(#SVGID_23_)" points="23.758,17.087 20.475,17.106 18.222,33.473 21.502,33.473 		"/>
		<linearGradient id="SVGID_25_" gradientUnits="userSpaceOnUse" x1="30.7998" y1="14.6084" x2="-3.1182" y2="27.6996">
			<stop  offset="0" style="stop-color:#1C1F7A"/>
			<stop  offset="1" style="stop-color:#0075C1"/>
		</linearGradient>
		<path fill="url(#SVGID_25_)" d="M13.352,32.328c0.884-0.711,1.42-1.757,1.609-3.138l1.686-12.245
			c0.152-1.097-0.111-2.023-0.793-2.776c-0.707-0.786-1.748-1.178-3.117-1.178H6.494c-1.004,0-1.93,0.368-2.773,1.1
			c-0.82,0.721-1.296,1.553-1.424,2.495L1.62,21.484c-0.068,0.492-0.032,1.041,0.104,1.647c0.098,0.418,0.223,0.753,0.378,1.004
			c0.595,0.92,1.689,1.381,3.279,1.381h5.441c0.91,0,1.299,0.476,1.17,1.427l-0.232,1.683c-0.104,0.743-0.272,1.213-0.509,1.41
			c-0.284,0.231-0.649,0.345-1.095,0.345H5.167c-0.777,0-1.12-0.345-1.036-1.035H0.68c-0.038,0.722-0.04,1.234-0.011,1.538
			c0.063,0.785,0.364,1.429,0.915,1.929c0.48,0.44,1.01,0.659,1.585,0.659h7.216C11.412,33.473,12.401,33.09,13.352,32.328z
			 M10.903,22.425H6.417c-0.544,0-0.962-0.147-1.257-0.439c-0.192-0.208-0.243-0.617-0.162-1.224l0.476-3.454
			c0.116-0.816,0.721-1.225,1.818-1.225h4.909c0.857,0,1.221,0.487,1.086,1.46l-0.469,3.392c-0.067,0.481-0.217,0.837-0.461,1.066
			C12.059,22.283,11.574,22.425,10.903,22.425z"/>
	</g>
</g>
</svg>
